<svg xmlns="http://www.w3.org/2000/svg" width="149" height="146" viewBox="0 0 149 146"><g transform="translate(-18 -208)"><g transform="translate(-101 -56)"><g transform="translate(119 264)"><text transform="translate(0 88.897)" fill="#1e7443" font-size="45" font-family="Montserrat-Bold, Montserrat" font-weight="700" letter-spacing="0.016em"><tspan x="0" y="0">Quero</tspan></text><text transform="translate(4.798 124.193)" fill="none" stroke="#1e7443" stroke-width="1" font-size="33" font-family="Montserrat-Bold, Montserrat" font-weight="700" letter-spacing="0.26em"><tspan x="0" y="0">férias</tspan></text><path d="M9.205,45A9.205,9.205,0,0,1,7.417,26.765,19.8,19.8,0,0,1,43.825,11.3,18.1,18.1,0,0,1,70.982,26.591H76.8A9.2,9.2,0,1,1,76.8,45Z" fill="#1e7443"/><path d="M20.566,2.25H17.377V7.029h3.188V2.25ZM30.2,5.513,27.338,8.38l2.233,2.233,2.867-2.867L30.2,5.513Zm-22.46,0L5.513,7.745,8.38,10.613,10.613,8.38,7.745,5.513Zm11.23,3.905a9.557,9.557,0,1,0,9.557,9.557,9.585,9.585,0,0,0-9.557-9.557ZM35.7,17.385H30.922v3.188H35.7V17.385Zm-28.672,0H2.25v3.188H7.029V17.385ZM29.57,27.338,27.338,29.57,30.2,32.437,32.437,30.2,29.57,27.338Zm-21.19,0L5.513,30.2l2.233,2.233,2.867-2.867L8.38,27.338Zm12.185,3.584H17.377V35.7h3.188V30.922Z" transform="translate(109.615 9.196)" fill="#1e7443"/><g transform="translate(0 136)" fill="#1e7443" stroke="#707070" stroke-width="1"><rect width="149" height="10" rx="5" stroke="none"/><rect x="0.5" y="0.5" width="148" height="9" rx="4.5" fill="none"/></g></g></g></g></svg>